HIERARCHY
ROOT Hips
{
  OFFSET 54.1083 94.2345 36.4578
  CHANNELS 6 Xposition Yposition Zposition Zrotation Xrotation Yrotation
  JOINT spine
  {
    OFFSET 0 7.80059 0.448573
    CHANNELS 3 Zrotation Xrotation Yrotation
    JOINT spine1
    {
      OFFSET 0 10.1364 0
      CHANNELS 3 Zrotation Xrotation Yrotation
      JOINT spine2
      {
        OFFSET 0 9.71251 0
        CHANNELS 3 Zrotation Xrotation Yrotation
        JOINT Neck
        {
          OFFSET 0 24.9361 1.18887
          CHANNELS 3 Zrotation Xrotation Yrotation
          JOINT Head
          {
            OFFSET 0 7.53384 0
            CHANNELS 3 Zrotation Xrotation Yrotation
            End Site
            {
              OFFSET 0 18.2361 -6.01402
            }
          }
        }
        JOINT RightShoulder
        {
          OFFSET -4.08965 10.4888 -0.569457
          CHANNELS 3 Zrotation Xrotation Yrotation
          JOINT RightArm
          {
            OFFSET 0 13.757 0
            CHANNELS 3 Zrotation Xrotation Yrotation
            JOINT RightArmRoll
            {
              OFFSET 0 6.94478 0
              CHANNELS 3 Zrotation Xrotation Yrotation
              JOINT RightForeArm
              {
                OFFSET 0 20.2277 0
                CHANNELS 3 Zrotation Xrotation Yrotation
                JOINT RightForeArmRoll
                {
                  OFFSET 0 7.79312 0
                  CHANNELS 3 Zrotation Xrotation Yrotation
                  JOINT RightHand
                  {
                    OFFSET 0 15.6391 0
                    CHANNELS 3 Zrotation Xrotation Yrotation
                    End Site
                    {
                      OFFSET 0 0 0
                    }
                  }
                }
              }
            }
          }
        }
        JOINT LeftShoulder
        {
          OFFSET 4.08965 10.4888 -0.569457
          CHANNELS 3 Zrotation Xrotation Yrotation
          JOINT LeftArm
          {
            OFFSET 0 13.757 0
            CHANNELS 3 Zrotation Xrotation Yrotation
            JOINT LeftArmRoll
            {
              OFFSET 0 6.94478 0
              CHANNELS 3 Zrotation Xrotation Yrotation
              JOINT LeftForeArm
              {
                OFFSET 0 20.2277 0
                CHANNELS 3 Zrotation Xrotation Yrotation
                JOINT LeftForeArmRoll
                {
                  OFFSET 0 7.79312 0
                  CHANNELS 3 Zrotation Xrotation Yrotation
                  JOINT LeftHand
                  {
                    OFFSET 0 15.6391 0
                    CHANNELS 3 Zrotation Xrotation Yrotation
                    End Site
                    {
                      OFFSET 0 0 0
                    }
                  }
                }
              }
            }
          }
        }
      }
    }
  }
  JOINT RightUpLeg
  {
    OFFSET -6.91416 -1.26788 -1.06358
    CHANNELS 3 Zrotation Xrotation Yrotation
    JOINT RightUpLegRoll
    {
      OFFSET 0 18.3378 0
      CHANNELS 3 Zrotation Xrotation Yrotation
      JOINT RightLeg
      {
        OFFSET 0 -22.7085 0
        CHANNELS 3 Zrotation Xrotation Yrotation
        JOINT RightLegRoll
        {
          OFFSET 0 22.7828 0
          CHANNELS 3 Zrotation Xrotation Yrotation
          JOINT RightFoot
          {
            OFFSET 0 18.9629 0
            CHANNELS 3 Zrotation Xrotation Yrotation
            JOINT RightToeBase
            {
              OFFSET 0 15.852 0
              CHANNELS 3 Zrotation Xrotation Yrotation
              End Site
              {
                OFFSET 0.00671906 7.677 -0.884893
              }
            }
          }
        }
      }
    }
  }
  JOINT LeftUpLeg
  {
    OFFSET 6.91416 -1.26788 -1.06358
    CHANNELS 3 Zrotation Xrotation Yrotation
    JOINT LeftUpLegRoll
    {
      OFFSET 0 18.3379 0
      CHANNELS 3 Zrotation Xrotation Yrotation
      JOINT LeftLeg
      {
        OFFSET 0 22.7084 0
        CHANNELS 3 Zrotation Xrotation Yrotation
        JOINT LeftLegRoll
        {
          OFFSET 0 22.9934 0
          CHANNELS 3 Zrotation Xrotation Yrotation
          JOINT LeftFoot
          {
            OFFSET 0 18.7522 0
            CHANNELS 3 Zrotation Xrotation Yrotation
            JOINT LeftToeBase
            {
              OFFSET 0 15.852 0
              CHANNELS 3 Zrotation Xrotation Yrotation
              End Site
              {
                OFFSET -0.030112 7.677 -0.884893
              }
            }
          }
        }
      }
    }
  }
}
MOTION
Frames: 7
Frame Time: 0.00208333
49.5551 54.2606 4.05441 1.71738 -36.0644 18.2404 1.16224 5.31135 -2.24794 2.61524 14.5725 -4.83151 2.68756 16.2142 -4.89365 -20.5986 16.4647 5.0013 16.7923 -2.74662 0.983765 64.3528 -4.77495 -3.32128 119.582 26.6925 -40.5101 -5.04577e-006 -5.35856e-006 -8.16184e-006 22.4801 54.7819 -12.2724 -6.64795e-006 1.65782e-005 -3 8.02888 -4.95096 0.697435 -72.3244 -2.0594 2.54624 -100.236 16.4099 23.6503 3.06485e-006 3.83064e-007 2.31611e-006 -19.8814 62.3872 17.1528 -3.64487e-008 1.91204e-005 2.99998 -8.0291 -4.95163 -0.69771 174.291 48.8346 12.4827 180 7.01477e-015 178.651 -18.2093 76.571 19.6474 2.8108e-006 -6.85472e-006 1.80009 -31.2479 80.2474 38.7817 8.13649 25.2327 -3.48774 -165.777 54.5311 -15.5476 4.5067e-006 -1.99009e-005 -2.5522 151.073 -75.547 145.157 -1.85049e-006 -4.47481e-006 -3.23717 35.2181 75.68 -31.2884 -8.22664 26.5551 3.53517 
49.5538 54.2587 4.0562 1.71627 -36.0608 18.2391 1.16319 5.31307 -2.24922 2.61712 14.5759 -4.83251 2.68944 16.2175 -4.89467 -20.655 16.5217 5.02941 16.8235 -2.77628 0.993031 64.3071 -4.76703 -3.3139 119.633 26.6796 -40.5006 -5.04577e-006 -5.35856e-006 -8.16184e-006 22.4795 54.7892 -12.2791 -6.64795e-006 1.65782e-005 -3 8.02888 -4.95096 0.697435 -72.3409 -2.05298 2.54473 -100.222 16.4119 23.6442 3.06485e-006 3.83064e-007 2.31611e-006 -19.879 62.3984 17.1546 -3.64487e-008 1.91204e-005 2.99998 -8.0291 -4.95163 -0.69771 174.289 48.8399 12.4831 180 7.01477e-015 178.651 -18.2058 76.5688 19.645 2.8108e-006 -6.85472e-006 1.80012 -31.2458 80.2477 38.7813 8.13649 25.2327 -3.48774 -165.774 54.5355 -15.5499 4.5067e-006 -1.99009e-005 -2.5522 151.075 -75.5448 145.158 -1.85049e-006 -4.47481e-006 -3.23717 35.2223 75.6823 -31.2949 -8.22655 26.5538 3.53496 
49.5617 54.2596 4.05673 1.71511 -36.0573 18.2378 1.16417 5.31475 -2.25064 2.61905 14.5791 -4.83374 2.69137 16.2207 -4.89593 -20.7124 16.5783 5.0579 16.8548 -2.80544 1.0024 64.2601 -4.75905 -3.30642 119.686 26.6663 -40.4911 -5.04577e-006 -5.35856e-006 -8.16184e-006 22.4792 54.7959 -12.2858 -6.64795e-006 1.65782e-005 -3 8.02888 -4.95096 0.697435 -72.3577 -2.04681 2.54336 -100.207 16.4132 23.6381 3.06485e-006 3.83064e-007 2.31611e-006 -19.8767 62.4101 17.1566 -3.64487e-008 1.91204e-005 2.99998 -8.0291 -4.95163 -0.69771 174.288 48.8448 12.483 180 7.01476e-015 178.651 -18.2028 76.5668 19.643 2.8108e-006 -6.85472e-006 1.80012 -31.2429 80.2479 38.7803 8.13649 25.2327 -3.48774 -165.772 54.5395 -15.5517 4.5067e-006 -1.99009e-005 -2.55221 151.076 -75.5425 145.16 -1.85049e-006 -4.47481e-006 -3.23717 35.2266 75.6847 -31.3017 -8.22645 26.5524 3.53474 
49.5603 54.2589 4.05289 1.71391 -36.0541 18.2366 1.16517 5.31641 -2.25217 2.62103 14.5823 -4.83515 2.69335 16.2239 -4.89736 -20.7706 16.6344 5.08666 16.8861 -2.83424 1.01184 64.2121 -4.75105 -3.29886 119.74 26.6528 -40.4817 -5.04577e-006 -5.35856e-006 -8.16184e-006 22.479 54.8023 -12.2926 -6.64795e-006 1.65782e-005 -3 8.02888 -4.95096 0.697435 -72.3747 -2.04082 2.54208 -100.193 16.4141 23.6318 3.06485e-006 3.83064e-007 2.31611e-006 -19.8745 62.4221 17.1588 -3.64487e-008 1.91204e-005 2.99998 -8.0291 -4.95163 -0.69771 174.286 48.8496 12.4827 180 7.01476e-015 178.65 -18.2001 76.5649 19.6413 2.8108e-006 -6.85472e-006 1.8001 -31.2393 80.2481 38.7789 8.13649 25.2327 -3.48774 -165.769 54.5433 -15.5534 4.5067e-006 -1.99009e-005 -2.55221 151.076 -75.5403 145.16 -1.85049e-006 -4.47481e-006 -3.23717 35.2308 75.6872 -31.3086 -8.22635 26.551 3.53451 
49.5603 54.261 4.05255 1.7127 -36.0509 18.2353 1.16618 5.31806 -2.25375 2.62304 14.5855 -4.83664 2.69536 16.2271 -4.89888 -20.8291 16.6904 5.11559 16.9176 -2.86283 1.02133 64.1636 -4.74304 -3.29126 119.795 26.6391 -40.4724 -5.04577e-006 -5.35856e-006 -8.16184e-006 22.4789 54.8084 -12.2994 -6.64795e-006 1.65782e-005 -3 8.02888 -4.95096 0.697435 -72.3917 -2.03493 2.54085 -100.178 16.4146 23.6255 3.06485e-006 3.83064e-007 2.31611e-006 -19.8723 62.4344 17.1611 -3.64487e-008 1.91204e-005 2.99998 -8.0291 -4.95163 -0.69771 174.284 48.8542 12.4823 180 7.01476e-015 178.65 -18.1975 76.5632 19.6398 2.8108e-006 -6.85472e-006 1.80007 -31.2354 80.2482 38.7773 8.13649 25.2327 -3.48774 -165.767 54.547 -15.5549 4.5067e-006 -1.99009e-005 -2.55222 151.077 -75.5381 145.161 -1.85049e-006 -4.47481e-006 -3.23717 35.2351 75.6897 -31.3155 -8.22625 26.5496 3.53429 
49.5629 54.2647 4.05071 1.71148 -36.0478 18.234 1.16719 5.3197 -2.25535 2.62505 14.5887 -4.83816 2.69737 16.2303 -4.90043 -20.8878 16.7464 5.14457 16.9491 -2.89138 1.03083 64.115 -4.73501 -3.28365 119.851 26.6254 -40.4631 -5.04577e-006 -5.35856e-006 -8.16184e-006 22.4789 54.8146 -12.3061 -6.64795e-006 1.65782e-005 -3 8.02888 -4.95096 0.697435 -72.4088 -2.02906 2.53963 -100.163 16.4151 23.6191 3.06485e-006 3.83064e-007 2.31611e-006 -19.8702 62.4467 17.1634 -3.64487e-008 1.91204e-005 2.99998 -8.0291 -4.95163 -0.69771 174.283 48.8588 12.4818 180 7.01476e-015 178.65 -18.195 76.5614 19.6383 2.8108e-006 -6.85472e-006 1.80003 -31.2314 80.2483 38.7756 8.13649 25.2327 -3.48774 -165.765 54.5507 -15.5564 4.5067e-006 -1.99009e-005 -2.55222 151.077 -75.5358 145.162 -1.85049e-006 -4.47481e-006 -3.23717 35.2393 75.6922 -31.3225 -8.22615 26.5482 3.53406 
49.5526 54.2536 4.05541 1.71027 -36.0446 18.2327 1.1682 5.32135 -2.25693 2.62705 14.5918 -4.83963 2.69937 16.2335 -4.90193 -20.9464 16.8024 5.1735 16.9805 -2.92002 1.0403 64.0666 -4.727 -3.27606 119.906 26.6117 -40.4538 -5.04577e-006 -5.35856e-006 -8.16184e-006 22.4788 54.8208 -12.3129 -6.64795e-006 1.65782e-005 -3 8.02888 -4.95096 0.697435 -72.4258 -2.02315 2.53839 -100.148 16.4158 23.6128 3.06485e-006 3.83064e-007 2.31611e-006 -19.868 62.459 17.1657 -3.64487e-008 1.91204e-005 2.99998 -8.0291 -4.95163 -0.69771 174.281 48.8634 12.4814 180 7.01476e-015 178.649 -18.1924 76.5596 19.6368 2.8108e-006 -6.85472e-006 1.8 -31.2275 80.2485 38.7741 8.13649 25.2327 -3.48774 -165.762 54.5544 -15.5579 4.5067e-006 -1.99009e-005 -2.55223 151.078 -75.5336 145.162 -1.85049e-006 -4.47481e-006 -3.23717 35.2436 75.6947 -31.3295 -8.22605 26.5468 3.53383 
